<?xml version="1.0" encoding="utf-8"?>
<!-- Generator: Adobe Illustrator 17.0.0, SVG Export Plug-In . SVG Version: 6.00 Build 0)  -->
<!DOCTYPE svg PUBLIC "-//W3C//DTD SVG 1.1//EN" "http://www.w3.org/Graphics/SVG/1.1/DTD/svg11.dtd">
<svg version="1.1" id="Layer_1" xmlns="http://www.w3.org/2000/svg" xmlns:xlink="http://www.w3.org/1999/xlink" x="0px" y="0px"
	 width="612px" height="792px" viewBox="0 0 612 792" enable-background="new 0 0 612 792" xml:space="preserve">
<g>
	<g>
		<path fill="#FFFFFF" d="M186.24,516.24c0-80,0-160,0-240c80,0,160,0,240,0c0,80,0,160,0,240
			C346.24,516.24,266.24,516.24,186.24,516.24z M319.81,351.186c0.412-5.245,0.024-10.388-1.904-15.306
			c-1.552-3.96-4.495-6.304-8.669-6.777c-3.012-0.342-6.006,0.109-8.903,1.212c-5.248,1.997-9.642,5.09-12.917,9.677
			c-1.937,2.713-3.009,5.698-2.473,9.096c0.587,3.723,3.096,6.076,6.033,7.947c3.853,2.456,8.279,3.432,12.686,4.392
			c2.246,0.489,4.543,0.852,6.703,1.6c3.845,1.332,6.553,3.861,7.434,8.033c1.389,6.58,0.487,12.795-3.151,18.472
			c-2.914,4.548-7.041,7.525-12.488,8.206c-2.713,0.339-5.499,0.4-8.228,0.221c-2.108-0.138-4.047-1.128-5.599-2.668
			c-2.973-2.949-5.862-5.988-8.922-8.845c-2.716-2.535-5.882-4.564-9.575-5.155c-6.297-1.008-11.741,0.881-16,5.749
			c-2.584,2.954-4.108,6.455-4.974,10.248c-1.053,4.608-1.243,9.21,0.26,13.779c2.106,6.4,7.225,9.723,13.898,9.169
			c3.566-0.296,6.756-1.665,9.743-3.388c3.66-2.113,7.103-4.604,10.629-6.948c2.964-1.971,6.042-3.722,9.42-4.882
			c2.821-0.969,5.741-1.173,8.699-0.946c3.321,0.255,6.56,0.856,9.55,2.406c3.963,2.053,7.343,4.917,10.681,7.823
			c5.526,4.81,11.817,7.584,19.254,7.352c0.781-0.024,1.553-0.273,2.335-0.363c3.964-0.455,7.419-2.101,10.383-4.689
			c4.584-4.003,6.964-9.285,8.226-15.104c1.282-5.913,0.136-11.376-3.621-16.153c-3.132-3.983-7.251-6.698-11.99-8.392
			c-2.305-0.824-4.722-1.352-7.11-1.924c-1.193-0.285-2.444-0.32-3.653-0.55c-2.537-0.483-4.648-1.885-6.717-3.312
			c-3.81-2.627-6.968-5.875-7.966-10.532C320.223,357.549,320.148,354.339,319.81,351.186z"/>
		<path d="M319.81,351.186c0.337,3.154,0.413,6.364,1.073,9.448c0.998,4.658,4.156,7.906,7.966,10.532
			c2.07,1.427,4.18,2.829,6.717,3.312c1.209,0.23,2.46,0.265,3.653,0.55c2.388,0.571,4.805,1.099,7.11,1.924
			c4.739,1.695,8.858,4.41,11.99,8.392c3.756,4.776,4.903,10.24,3.621,16.153c-1.262,5.819-3.642,11.101-8.226,15.104
			c-2.964,2.588-6.419,4.234-10.383,4.689c-0.782,0.09-1.554,0.339-2.335,0.363c-7.437,0.232-13.727-2.542-19.254-7.352
			c-3.338-2.906-6.718-5.77-10.681-7.823c-2.99-1.549-6.229-2.151-9.55-2.406c-2.959-0.227-5.878-0.023-8.699,0.946
			c-3.377,1.16-6.456,2.911-9.42,4.882c-3.525,2.345-6.968,4.836-10.629,6.948c-2.987,1.724-6.177,3.092-9.743,3.388
			c-6.673,0.554-11.792-2.768-13.898-9.169c-1.504-4.569-1.313-9.171-0.26-13.779c0.866-3.793,2.39-7.294,4.974-10.248
			c4.259-4.869,9.703-6.758,16-5.749c3.693,0.592,6.859,2.62,9.575,5.155c3.06,2.856,5.949,5.895,8.922,8.845
			c1.552,1.54,3.491,2.53,5.599,2.668c2.729,0.179,5.514,0.118,8.228-0.221c5.447-0.681,9.574-3.658,12.488-8.206
			c3.638-5.677,4.541-11.892,3.151-18.472c-0.881-4.173-3.589-6.701-7.434-8.033c-2.16-0.748-4.457-1.111-6.703-1.6
			c-4.407-0.96-8.834-1.937-12.686-4.392c-2.937-1.872-5.446-4.225-6.033-7.947c-0.536-3.398,0.536-6.383,2.473-9.096
			c3.275-4.587,7.669-7.679,12.917-9.677c2.897-1.103,5.891-1.554,8.903-1.212c4.175,0.474,7.117,2.818,8.669,6.777
			C319.834,340.798,320.222,345.941,319.81,351.186z"/>
	</g>
</g>
</svg>
